<svg width="16" height="16" viewBox="0 0 16 16" fill="none" xmlns="http://www.w3.org/2000/svg">
<path d="M8.56566 1.83431C8.25324 1.5219 7.74671 1.5219 7.43429 1.83431L1.83429 7.43432C1.52187 7.74673 1.52187 8.25327 1.83429 8.56569C2.14671 8.87811 2.65324 8.87811 2.96566 8.56569L3.19998 8.33137V13.6C3.19998 14.0418 3.55815 14.4 3.99998 14.4H5.59998C6.0418 14.4 6.39998 14.0418 6.39998 13.6V12C6.39998 11.5582 6.75815 11.2 7.19998 11.2H8.79998C9.2418 11.2 9.59998 11.5582 9.59998 12V13.6C9.59998 14.0418 9.95815 14.4 10.4 14.4H12C12.4418 14.4 12.8 14.0418 12.8 13.6V8.33137L13.0343 8.56569C13.3467 8.87811 13.8532 8.87811 14.1657 8.56569C14.4781 8.25327 14.4781 7.74673 14.1657 7.43432L8.56566 1.83431Z" fill="#27364B"/>
</svg>
