<svg width="20" height="20" viewBox="0 0 20 20" fill="none" xmlns="http://www.w3.org/2000/svg">
<path d="M11.1819 0.751496C10.7133 0.282867 9.9535 0.282867 9.48487 0.751496L1.08487 9.1515C0.616241 9.62013 0.616241 10.3799 1.08487 10.8486C1.5535 11.3172 2.3133 11.3172 2.78193 10.8486L3.1334 10.4971V18.4C3.1334 19.0628 3.67066 19.6 4.3334 19.6H6.7334C7.39614 19.6 7.9334 19.0628 7.9334 18.4V16C7.9334 15.3373 8.47066 14.8 9.1334 14.8H11.5334C12.1961 14.8 12.7334 15.3373 12.7334 16V18.4C12.7334 19.0628 13.2707 19.6 13.9334 19.6H16.3334C16.9961 19.6 17.5334 19.0628 17.5334 18.4V10.4971L17.8849 10.8486C18.3535 11.3172 19.1133 11.3172 19.5819 10.8486C20.0506 10.3799 20.0506 9.62013 19.5819 9.1515L11.1819 0.751496Z" fill="#A6AAB1"/>
</svg>
