<svg width="14" height="14" viewBox="0 0 14 14" fill="none" xmlns="http://www.w3.org/2000/svg">
<path d="M6.33333 2.92146V11.8268C6.33333 12.4747 5.80807 13 5.16012 13C4.6643 13 4.22202 12.6883 4.05526 12.2214L2.62432 8.12192M11 7.66667C12.1046 7.66667 13 6.77124 13 5.66667C13 4.5621 12.1046 3.66667 11 3.66667M2.62432 8.12192C1.66953 7.71607 1 6.76955 1 5.66666C1 4.19391 2.1939 3 3.66666 3H4.88806C7.62182 3 9.97126 2.17727 11 1L11 10.3333C9.97126 9.15606 7.62182 8.33333 4.88806 8.33333L3.66665 8.33333C3.29679 8.33333 2.94451 8.25803 2.62432 8.12192Z" stroke="#85909E" stroke-width="1.33333" stroke-linecap="round" stroke-linejoin="round"/>
</svg>
