<svg width="24" height="24" viewBox="0 0 24 24" fill="none" xmlns="http://www.w3.org/2000/svg">
<path d="M19.1688 17.3929L18.7317 17.7418L19.1272 18.1372L20.895 19.905C21.1684 20.1784 21.1684 20.6216 20.895 20.895C20.6216 21.1684 20.1784 21.1684 19.905 20.895L3.10504 4.095C2.83167 3.82163 2.83167 3.37842 3.10504 3.10505C3.3784 2.83168 3.82162 2.83168 4.09499 3.10505L6.23181 5.24187L6.48803 5.49809L6.81129 5.33436C8.36965 4.54503 10.1323 4.10002 12.0003 4.10002C17.0935 4.10002 21.4146 7.41145 22.9257 12C22.2191 14.1455 20.8976 16.013 19.1688 17.3929ZM9.30738 7.43427L8.75226 7.76232L9.20821 8.21827L11.0249 10.0349L11.2289 10.239L11.5076 10.1644C11.6642 10.1225 11.8293 10.1 12.0003 10.1C13.0497 10.1 13.9003 10.9507 13.9003 12C13.9003 12.1711 13.8778 12.3361 13.8359 12.4927L13.7614 12.7714L13.9654 12.9755L15.7821 14.7921L16.238 15.2481L16.5661 14.693C17.0327 13.9034 17.3003 12.9822 17.3003 12C17.3003 9.07292 14.9274 6.70002 12.0003 6.70002C11.0181 6.70002 10.097 6.96765 9.30738 7.43427ZM6.72594 12.5242C6.97243 15.0331 8.96728 17.0279 11.4761 17.2744L13.9391 19.7374C13.3091 19.8443 12.6613 19.9 12.0002 19.9C6.907 19.9 2.5859 16.5886 1.07484 12.0001C1.47747 10.7774 2.07979 9.64509 2.84347 8.64174L6.72594 12.5242Z" fill="#032E41" stroke="#032E41"/>
</svg>
