<svg width="24" height="24" viewBox="0 0 24 24" fill="none" xmlns="http://www.w3.org/2000/svg">
<path d="M13.9 12C13.9 13.0493 13.0494 13.9 12 13.9C10.9507 13.9 10.1 13.0493 10.1 12C10.1 10.9506 10.9507 10.1 12 10.1C13.0494 10.1 13.9 10.9506 13.9 12ZM1.07454 12C2.58556 7.41144 6.90669 4.09998 12 4.09998C17.0932 4.09998 21.4143 7.4114 22.9254 11.9999C21.4143 16.5885 17.0932 19.9 11.9999 19.9C6.90669 19.9 2.58559 16.5886 1.07454 12ZM12 17.3C14.9271 17.3 17.3 14.9271 17.3 12C17.3 9.07287 14.9271 6.69998 12 6.69998C9.0729 6.69998 6.70001 9.07287 6.70001 12C6.70001 14.9271 9.0729 17.3 12 17.3Z" fill="#032E41" stroke="#032E41"/>
</svg>
